# xmcd
#
# Track frame offsets:
# 150
# 14332
# 23987
# 43976
# 58010
# 73566
# 85659
# 97787
# 113380
# 126061
# 143262
# 156265
# 171034
# 183899
#
# Disc length: 2622 seconds
#
#
# Revision: 2
# Processed by: cddbd v1.5.2PL0 Copyright (c) Steve Scherf et al.
# Submitted via: FreeRIP 2.90 
#
DISCID=a50a3c0e
DTITLE=BOB MARLEY - SOUL REBEL
DYEAR=1900
DGENRE=Acid
TTITLE0=BOB MARLEY - Concrete jungle
TTITLE1=BOB MARLEY - Satisfy my soul
TTITLE2=BOB MARLEY - Rainbow country
TTITLE3=BOB MARLEY - Keep on movin'
TTITLE4=BOB MARLEY - My cup[i've got to cry]
TTITLE5=BOB MARLEY - Power and more power
TTITLE6=BOB MARLEY - Hypocrites
TTITLE7=BOB MARLEY - Soul almighty
TTITLE8=BOB MARLEY - Lively up yourself
TTITLE9=BOB MARLEY - Small axe
TTITLE10=BOB MARLEY - Trench town rock
TTITLE11=BOB MARLEY - Soul rebel
TTITLE12=BOB MARLEY - No sympathy
TTITLE13=BOB MARLEY - 400 tears
EXTD=
EXTT0=
EXTT1=
EXTT2=
EXTT3=
EXTT4=
EXTT5=
EXTT6=
EXTT7=
EXTT8=
EXTT9=
EXTT10=
EXTT11=
EXTT12=
EXTT13=
PLAYORDER=
